<?xml version="1.0" standalone="no"?>
<!DOCTYPE svg PUBLIC "-//W3C//DTD SVG 1.1//EN" "http://www.w3.org/Graphics/SVG/1.1/DTD/svg11.dtd" >
<svg>
<metadata>
Created by FontForge 20090622 at Fri Feb  5 10:25:55 2016
 By deploy user
EeveSomepx
</metadata>
<defs>
<font id="Akt" horiz-adv-x="832" >
  <font-face 
    font-family="Akt"
    font-weight="500"
    font-stretch="normal"
    units-per-em="1024"
    panose-1="2 0 6 3 0 0 0 0 0 0"
    ascent="768"
    descent="-256"
    x-height="576"
    cap-height="768"
    bbox="0 -256 768 768"
    underline-thickness="51"
    underline-position="-103"
    unicode-range="U+0020-U+00B6"
  />
<missing-glyph horiz-adv-x="374" 
d="M34 0v682h272v-682h-272zM68 34h204v614h-204v-614z" />
    <glyph glyph-name=".notdef" horiz-adv-x="374" 
d="M34 0v682h272v-682h-272zM68 34h204v614h-204v-614z" />
    <glyph glyph-name=".null" horiz-adv-x="0" 
 />
    <glyph glyph-name="nonmarkingreturn" horiz-adv-x="341" 
 />
    <glyph glyph-name="space" unicode=" " horiz-adv-x="320" 
 />
    <glyph glyph-name="exclam" unicode="!" horiz-adv-x="192" 
d="M64 0h-64v64v64h64h64v-64v-64h-64zM64 192h-64v64v64v64v64v64v64v64v64v64h64h64v-64v-64v-64v-64v-64v-64v-64v-64v-64h-64z" />
    <glyph glyph-name="quotedbl" unicode="&#x22;" horiz-adv-x="448" 
d="M256 448h-64v64v64h64v64h64h64v-64v-64h-64v-64h-64zM64 576h-64v64v64h64v64h64h64v-64v-64h-64v-64h-64z" />
    <glyph glyph-name="numbersign" unicode="#" 
d="M576 64h-64v64v64h-64h-64h-64h-64v-64v-64h-64h-64v64v64h-64h-64v64v64h64h64v64v64h-64h-64v64v64h64h64v64v64h64h64v-64v-64h64h64h64h64v64v64h64h64v-64v-64h64h64v-64v-64h-64h-64v-64v-64h64h64v-64v-64h-64h-64v-64v-64h-64zM448 320h64v64v64h-64h-64h-64h-64
v-64v-64h64h64h64z" />
    <glyph glyph-name="dollar" unicode="$" 
d="M384 0h-64v64h-64h-64h-64h-64v64h-64v64v64h64h64v-64h64h64h64v64v64h-64h-64h-64h-64v64h-64v64v64v64v64h64v64h64h64h64h64v64h64h64v-64h64h64h64h64v-64h64v-64v-64h-64h-64v64h-64h-64h-64v-64v-64h64h64h64h64v-64h64v-64v-64v-64v-64h-64v-64h-64h-64h-64h-64
v-64h-64zM576 192h64v64v64h-64h-64h-64v-64v-64h64h64zM256 448h64v64v64h-64h-64h-64v-64v-64h64h64z" />
    <glyph glyph-name="percent" unicode="%" horiz-adv-x="704" 
d="M512 128h-64v64v64h64v64h64h64v-64v-64h-64v-64h-64zM128 128h-64v64v64h64v64h64v64h64v64h64v64h64v64h64v64h64h64v-64v-64h-64v-64h-64v-64h-64v-64h-64v-64h-64v-64h-64v-64h-64zM64 448h-64v64v64h64v64h64h64v-64v-64h-64v-64h-64z" />
    <glyph glyph-name="ampersand" unicode="&#x26;" 
d="M704 0h-64v64h-64v64h-64v-64h-64v-64h-64h-64h-64h-64h-64h-64v64h-64v64v64v64v64v64h64v64h64v64h-64v64v64v64h64v64h64h64h64h64v-64h64v-64v-64v-64h-64v-64h64v-64h64v-64h64v64h64h64v-64v-64h-64v-64h64v-64h64v-64v-64h-64zM320 128h64v64h64v64h-64v64h-64v64
h-64h-64v-64h-64v-64v-64v-64h64h64h64zM256 512h64v64v64h-64h-64v-64v-64h64z" />
    <glyph glyph-name="quotesingle" unicode="'" horiz-adv-x="256" 
d="M64 576h-64v64v64h64v64h64h64v-64v-64h-64v-64h-64z" />
    <glyph glyph-name="parenleft" unicode="(" horiz-adv-x="384" 
d="M256 0h-64v64h-64v64h-64v64h-64v64v64v64v64v64v64h64v64h64v64h64v64h64h64v-64v-64h-64v-64h-64v-64h-64v-64v-64v-64v-64h64v-64h64v-64h64v-64v-64h-64z" />
    <glyph glyph-name="parenright" unicode=")" horiz-adv-x="384" 
d="M64 0h-64v64v64h64v64h64v64h64v64v64v64v64h-64v64h-64v64h-64v64v64h64h64v-64h64v-64h64v-64h64v-64v-64v-64v-64v-64v-64h-64v-64h-64v-64h-64v-64h-64z" />
    <glyph glyph-name="asterisk" unicode="*" 
d="M704 64h-64v64h-64v64h-64v64h-64v-64v-64v-64h-64h-64v64v64v64h-64v-64h-64v-64h-64v-64h-64h-64v64v64h64v64h64v64h64v64v64h-64v64h-64v64h-64v64v64h64h64v-64h64v-64h64v-64h64v64v64v64h64h64v-64v-64v-64h64v64h64v64h64v64h64h64v-64v-64h-64v-64h-64v-64h-64
v-64v-64h64v-64h64v-64h64v-64v-64h-64z" />
    <glyph glyph-name="plus" unicode="+" 
d="M384 64h-64v64v64h-64h-64h-64h-64h-64v64v64h64h64h64h64h64v64v64h64h64v-64v-64h64h64h64h64h64v-64v-64h-64h-64h-64h-64h-64v-64v-64h-64z" />
    <glyph glyph-name="comma" unicode="," horiz-adv-x="256" 
d="M64 -64h-64v64v64h64v64h64h64v-64v-64h-64v-64h-64z" />
    <glyph glyph-name="hyphen" unicode="-" 
d="M704 192h-64h-64h-64h-64h-64h-64h-64h-64h-64h-64h-64v64v64h64h64h64h64h64h64h64h64h64h64h64h64v-64v-64h-64z" />
    <glyph glyph-name="period" unicode="." horiz-adv-x="192" 
d="M64 0h-64v64v64h64h64v-64v-64h-64z" />
    <glyph glyph-name="slash" unicode="/" 
d="M64 0h-64v64v64h64v64h64v64h64v64h64v64h64v64h64v64h64v64h64v64h64v64h64v64h64h64v-64v-64h-64v-64h-64v-64h-64v-64h-64v-64h-64v-64h-64v-64h-64v-64h-64v-64h-64v-64h-64v-64h-64z" />
    <glyph glyph-name="zero" unicode="0" 
d="M640 0h-64h-64h-64h-64h-64h-64h-64h-64h-64v64h-64v64v64v64v64v64v64v64v64v64v64h64v64h64h64h64h64h64h64h64h64h64h64v-64h64v-64v-64v-64v-64v-64v-64v-64v-64v-64v-64h-64v-64h-64zM576 128h64v64v64v64v64v64v64h-64v-64h-64v-64h-64v-64h-64v-64h-64v-64h-64
v-64h64h64h64h64h64zM192 256v64h64v64h64v64h64v64h64v64h64v64h-64h-64h-64h-64h-64h-64v-64v-64v-64v-64v-64v-64h64z" />
    <glyph glyph-name="one" unicode="1" 
d="M704 0h-64h-64h-64h-64h-64h-64h-64h-64h-64h-64h-64v64v64h64h64h64h64h64v64v64v64v64v64v64v64v64h-64h-64h-64h-64v64v64h64h64h64h64h64h64v-64v-64v-64v-64v-64v-64v-64v-64v-64v-64h64h64h64h64h64v-64v-64h-64z" />
    <glyph glyph-name="two" unicode="2" 
d="M704 0h-64h-64h-64h-64h-64h-64h-64h-64h-64h-64h-64v64v64v64h64v64h64v64h64v64h64v64h64v64h64v64h64v64h-64h-64h-64h-64h-64v-64v-64h-64h-64v64v64v64h64v64h64h64h64h64h64h64h64h64v-64h64v-64v-64h-64v-64h-64v-64h-64v-64h-64v-64h-64v-64h-64v-64h-64v-64h64
h64h64h64h64h64h64h64h64v-64v-64h-64z" />
    <glyph glyph-name="three" unicode="3" horiz-adv-x="704" 
d="M320 0h-64h-64h-64h-64h-64v64v64h64h64h64h64h64v64h64v64h64v64h64v64h-64h-64h-64h-64h-64v64v64h64h64h64v64h64v64h-64h-64h-64h-64h-64v-64v-64h-64h-64v64v64v64h64v64h64h64h64h64h64h64h64h64v-64h64v-64v-64h-64v-64v-64h64v-64v-64v-64h-64v-64h-64v-64h-64
v-64h-64v-64h-64z" />
    <glyph glyph-name="four" unicode="4" 
d="M448 0h-64v64v64v64v64h-64h-64h-64h-64h-64h-64v64v64v64v64v64v64v64h64v64h64h64v-64v-64h-64v-64v-64v-64v-64h64h64h64h64v64v64v64v64h64h64v-64v-64v-64v-64h64h64h64h64v-64v-64h-64h-64h-64h-64v-64v-64v-64v-64h-64z" />
    <glyph glyph-name="five" unicode="5" horiz-adv-x="704" 
d="M320 0h-64h-64h-64h-64h-64v64v64h64h64h64h64h64v64h64v64h64v64h64v64h-64h-64h-64h-64h-64h-64h-64v64h-64v64v64v64v64h64v64h64h64h64h64h64h64h64h64h64v-64v-64h-64h-64h-64h-64h-64h-64h-64h-64v-64v-64h64h64h64h64h64h64h64v-64h64v-64v-64v-64h-64v-64h-64
v-64h-64v-64h-64v-64h-64z" />
    <glyph glyph-name="six" unicode="6" horiz-adv-x="704" 
d="M448 0h-64h-64h-64h-64h-64h-64v64h-64v64v64v64v64v64v64v64v64v64v64h64v64h64h64h64h64h64h64h64h64v-64h64v-64v-64h-64h-64v64h-64h-64h-64h-64h-64h-64v-64v-64h64h64h64h64h64h64h64v-64h64v-64v-64v-64v-64v-64h-64v-64h-64v-64h-64zM384 128h64v64h64v64v64v64
h-64h-64h-64h-64h-64h-64v-64v-64v-64v-64h64h64h64h64z" />
    <glyph glyph-name="seven" unicode="7" 
d="M128 0h-64h-64v64h64v64h64v64h64v64h64v64h64v64h-64h-64v64v64h64h64h64h64h64v64h64v64h-64h-64h-64h-64h-64h-64h-64v-64h-64h-64v64v64h64v64h64h64h64h64h64h64h64h64h64h64v-64h64v-64v-64h-64v-64h-64v-64h-64v-64h-64v-64h-64v-64h-64v-64h-64v-64h-64v-64h-64
v-64h-64z" />
    <glyph glyph-name="eight" unicode="8" horiz-adv-x="704" 
d="M512 0h-64h-64h-64h-64h-64h-64h-64v64h-64v64v64v64v64v64v64h64v64h-64v64v64v64h64v64h64h64h64h64h64h64h64h64v-64h64v-64v-64v-64h-64v-64h64v-64v-64v-64v-64v-64v-64h-64v-64h-64zM448 128h64v64v64v64v64h-64h-64h-64h-64h-64h-64v-64v-64v-64v-64h64h64h64h64
h64zM448 512h64v64v64h-64h-64h-64h-64h-64h-64v-64v-64h64h64h64h64h64z" />
    <glyph glyph-name="nine" unicode="9" horiz-adv-x="704" 
d="M448 0h-64h-64h-64h-64h-64h-64v64h-64v64v64h64h64v-64h64h64h64h64h64v64h64v64h-64h-64h-64h-64h-64h-64h-64v64h-64v64v64v64v64v64v64h64v64h64h64h64h64h64h64h64h64v-64h64v-64v-64v-64v-64v-64v-64v-64v-64v-64h-64v-64h-64v-64h-64zM448 384h64v64v64v64v64h-64
h-64h-64h-64h-64h-64v-64v-64v-64v-64h64h64h64h64h64z" />
    <glyph glyph-name="colon" unicode=":" horiz-adv-x="192" 
d="M64 0h-64v64v64h64h64v-64v-64h-64zM64 192h-64v64v64h64h64v-64v-64h-64z" />
    <glyph glyph-name="semicolon" unicode=";" horiz-adv-x="256" 
d="M64 -64h-64v64v64h64v64h64h64v-64v-64h-64v-64h-64zM128 192h-64v64v64h64h64v-64v-64h-64z" />
    <glyph glyph-name="less" unicode="&#x3c;" horiz-adv-x="384" 
d="M256 0h-64v64h-64v64h-64v64h-64v64v64v64h64v64h64v64h64v64h64h64v-64v-64h-64v-64h-64v-64h-64v-64h64v-64h64v-64h64v-64v-64h-64z" />
    <glyph glyph-name="equal" unicode="=" 
d="M704 64h-64h-64h-64h-64h-64h-64h-64h-64h-64h-64h-64v64v64h64h64h64h64h64h64h64h64h64h64h64h64v-64v-64h-64zM704 320h-64h-64h-64h-64h-64h-64h-64h-64h-64h-64h-64v64v64h64h64h64h64h64h64h64h64h64h64h64h64v-64v-64h-64z" />
    <glyph glyph-name="greater" unicode="&#x3e;" horiz-adv-x="384" 
d="M64 0h-64v64v64h64v64h64v64h64v64h-64v64h-64v64h-64v64v64h64h64v-64h64v-64h64v-64h64v-64v-64v-64h-64v-64h-64v-64h-64v-64h-64z" />
    <glyph glyph-name="question" unicode="?" horiz-adv-x="576" 
d="M256 0h-64v64v64h64h64v-64v-64h-64zM256 192h-64v64v64h64v64h64v64h64v64v64v64h-64h-64h-64h-64v-64h-64h-64v64v64h64v64h64h64h64h64h64h64v-64h64v-64v-64v-64v-64v-64h-64v-64h-64v-64h-64v-64h-64z" />
    <glyph glyph-name="at" unicode="@" 
d="M640 0h-64h-64h-64h-64h-64h-64h-64h-64h-64v64h-64v64v64v64v64v64v64v64v64v64v64h64v64h64h64h64h64h64h64h64h64h64h64v-64h64v-64v-64v-64v-64v-64v-64v-64h-64v-64h-64h-64h-64h-64h-64h-64h-64h-64v64v64v64v64v64v64h64h64h64h64h64h64v-64v-64v-64v-64h64v64v64
v64v64v64h-64h-64h-64h-64h-64h-64h-64h-64v-64v-64v-64v-64v-64v-64v-64v-64h64h64h64h64h64h64h64h64h64v-64v-64h-64zM384 320h64v64v64h-64h-64v-64v-64h64z" />
    <glyph glyph-name="A" unicode="A" 
d="M704 0h-64v64v64v64v64v64h-64h-64h-64h-64h-64h-64h-64h-64v-64v-64v-64v-64v-64h-64h-64v64v64v64v64v64v64v64v64v64h64v64h64v64h64v64h64h64h64h64h64h64v-64h64v-64h64v-64h64v-64v-64v-64v-64v-64v-64v-64v-64v-64h-64zM576 448h64v64h-64v64h-64v64h-64h-64h-64
h-64v-64h-64v-64h-64v-64h64h64h64h64h64h64h64z" />
    <glyph glyph-name="B" unicode="B" 
d="M640 0h-64h-64h-64h-64h-64h-64h-64h-64h-64h-64v64v64v64v64v64v64v64v64v64v64v64v64h64h64h64h64h64h64h64h64h64h64h64v-64h64v-64v-64v-64v-64h-64v-64v-64h64v-64v-64v-64v-64h-64v-64h-64zM576 128h64v64v64v64h-64h-64h-64h-64h-64h-64h-64h-64v-64v-64v-64h64
h64h64h64h64h64h64zM576 448h64v64v64v64h-64h-64h-64h-64h-64h-64h-64h-64v-64v-64v-64h64h64h64h64h64h64h64z" />
    <glyph glyph-name="C" unicode="C" 
d="M640 0h-64h-64h-64h-64h-64h-64h-64h-64h-64v64h-64v64v64v64v64v64v64v64v64v64v64h64v64h64h64h64h64h64h64h64h64h64h64v-64h64v-64v-64h-64h-64v64h-64h-64h-64h-64h-64h-64h-64h-64v-64v-64v-64v-64v-64v-64v-64v-64h64h64h64h64h64h64h64h64v64h64h64v-64v-64h-64
v-64h-64z" />
    <glyph glyph-name="D" unicode="D" 
d="M512 0h-64h-64h-64h-64h-64h-64h-64h-64v64v64v64v64v64v64v64v64v64v64v64v64h64h64h64h64h64h64h64h64h64v-64h64v-64h64v-64h64v-64v-64v-64v-64v-64v-64h-64v-64h-64v-64h-64v-64h-64zM448 128h64v64h64v64h64v64v64v64v64h-64v64h-64v64h-64h-64h-64h-64h-64h-64
v-64v-64v-64v-64v-64v-64v-64v-64h64h64h64h64h64z" />
    <glyph glyph-name="E" unicode="E" 
d="M704 0h-64h-64h-64h-64h-64h-64h-64h-64h-64h-64v64h-64v64v64v64v64v64v64v64v64v64v64h64v64h64h64h64h64h64h64h64h64h64h64h64v-64v-64h-64h-64h-64h-64h-64h-64h-64h-64h-64h-64v-64v-64v-64h64h64h64h64h64h64h64h64v-64v-64h-64h-64h-64h-64h-64h-64h-64h-64v-64
v-64v-64h64h64h64h64h64h64h64h64h64h64v-64v-64h-64z" />
    <glyph glyph-name="F" unicode="F" 
d="M64 0h-64v64v64v64v64v64v64v64v64v64v64v64h64v64h64h64h64h64h64h64h64h64h64h64h64v-64v-64h-64h-64h-64h-64h-64h-64h-64h-64h-64h-64v-64v-64v-64h64h64h64h64h64h64h64h64v-64v-64h-64h-64h-64h-64h-64h-64h-64h-64v-64v-64v-64v-64v-64h-64z" />
    <glyph glyph-name="G" unicode="G" 
d="M640 0h-64h-64h-64h-64h-64h-64h-64h-64h-64v64h-64v64v64v64v64v64v64v64v64v64v64h64v64h64h64h64h64h64h64h64h64h64h64v-64h64v-64v-64h-64h-64v64h-64h-64h-64h-64h-64h-64h-64h-64v-64v-64v-64v-64v-64v-64v-64v-64h64h64h64h64h64h64h64h64v64v64v64h-64h-64h-64
h-64v64v64h64h64h64h64h64v-64h64v-64v-64v-64v-64v-64h-64v-64h-64z" />
    <glyph glyph-name="H" unicode="H" 
d="M704 0h-64v64v64v64v64v64h-64h-64h-64h-64h-64h-64h-64h-64v-64v-64v-64v-64v-64h-64h-64v64v64v64v64v64v64v64v64v64v64v64v64h64h64v-64v-64v-64v-64v-64h64h64h64h64h64h64h64h64v64v64v64v64v64h64h64v-64v-64v-64v-64v-64v-64v-64v-64v-64v-64v-64v-64h-64z" />
    <glyph glyph-name="I" unicode="I" 
d="M704 0h-64h-64h-64h-64h-64h-64h-64h-64h-64h-64h-64v64v64h64h64h64h64h64v64v64v64v64v64v64v64v64h-64h-64h-64h-64h-64v64v64h64h64h64h64h64h64h64h64h64h64h64h64v-64v-64h-64h-64h-64h-64h-64v-64v-64v-64v-64v-64v-64v-64v-64h64h64h64h64h64v-64v-64h-64z" />
    <glyph glyph-name="J" unicode="J" 
d="M640 0h-64h-64h-64h-64h-64h-64h-64h-64h-64v64h-64v64v64v64v64v64v64h64h64v-64v-64v-64v-64v-64h64h64h64h64h64h64h64h64v64v64v64v64v64v64v64v64h-64h-64h-64h-64v64v64h64h64h64h64h64v-64h64v-64v-64v-64v-64v-64v-64v-64v-64v-64v-64h-64v-64h-64z" />
    <glyph glyph-name="K" unicode="K" 
d="M704 0h-64v64v64v64v64v64h-64h-64h-64h-64h-64h-64h-64h-64v-64v-64v-64v-64v-64h-64h-64v64v64v64v64v64v64v64v64v64v64v64v64h64h64v-64v-64v-64v-64h64v64h64v64h64v64h64v64h64h64v-64v-64h-64v-64h-64v-64h-64v-64h64h64h64h64h64h64v-64h64v-64v-64v-64v-64v-64
v-64h-64z" />
    <glyph glyph-name="L" unicode="L" 
d="M704 0h-64h-64h-64h-64h-64h-64h-64h-64h-64h-64h-64v64v64v64v64v64v64v64v64v64v64v64v64h64h64v-64v-64v-64v-64v-64v-64v-64v-64v-64v-64h64h64h64h64h64h64h64h64h64h64v-64v-64h-64z" />
    <glyph glyph-name="M" unicode="M" 
d="M704 0h-64v64v64v64v64v64v64v64v64v64h-64v-64h-64v-64h-64v-64h-64h-64v64h-64v64h-64v64h-64v-64v-64v-64v-64v-64v-64v-64v-64v-64h-64h-64v64v64v64v64v64v64v64v64v64v64v64v64h64h64h64v-64h64v-64h64v-64h64h64v64h64v64h64v64h64h64h64v-64v-64v-64v-64v-64v-64
v-64v-64v-64v-64v-64v-64h-64z" />
    <glyph glyph-name="N" unicode="N" 
d="M704 0h-64v64v64h-64v64h-64v64h-64v64h-64v64h-64v64h-64v64h-64v64h-64v-64v-64v-64v-64v-64v-64v-64v-64v-64h-64h-64v64v64v64v64v64v64v64v64v64v64v64v64h64h64h64v-64h64v-64h64v-64h64v-64h64v-64h64v-64h64v-64h64v64v64v64v64v64v64v64h64h64v-64v-64v-64v-64
v-64v-64v-64v-64v-64v-64v-64v-64h-64z" />
    <glyph glyph-name="O" unicode="O" 
d="M640 0h-64h-64h-64h-64h-64h-64h-64h-64h-64v64h-64v64v64v64v64v64v64v64v64v64v64h64v64h64h64h64h64h64h64h64h64h64h64v-64h64v-64v-64v-64v-64v-64v-64v-64v-64v-64v-64h-64v-64h-64zM576 128h64v64v64v64v64v64v64v64v64h-64h-64h-64h-64h-64h-64h-64h-64v-64v-64
v-64v-64v-64v-64v-64v-64h64h64h64h64h64h64h64z" />
    <glyph glyph-name="P" unicode="P" 
d="M64 0h-64v64v64v64v64v64v64v64v64v64v64v64h64v64h64h64h64h64h64h64h64h64h64h64v-64h64v-64v-64v-64v-64v-64h-64v-64h-64h-64h-64h-64h-64h-64h-64h-64h-64v-64v-64v-64v-64v-64h-64zM576 448h64v64v64v64h-64h-64h-64h-64h-64h-64h-64h-64v-64v-64v-64h64h64h64h64
h64h64h64z" />
    <glyph glyph-name="Q" unicode="Q" 
d="M704 -128h-64v64h-64v64h-64h-64h-64h-64h-64h-64h-64h-64v64h-64v64v64v64v64v64v64v64v64v64v64h64v64h64h64h64h64h64h64h64h64h64h64v-64h64v-64v-64v-64v-64v-64v-64v-64v-64v-64v-64h-64v-64h64v-64v-64h-64zM320 128h64v64v64h64h64v-64h64v-64h64v64v64v64v64v64
v64v64v64h-64h-64h-64h-64h-64h-64h-64h-64v-64v-64v-64v-64v-64v-64v-64v-64h64h64h64z" />
    <glyph glyph-name="R" unicode="R" 
d="M704 0h-64v64h-64v64h-64v64h-64v64h-64v64h-64h-64h-64h-64v-64v-64v-64v-64v-64h-64h-64v64v64v64v64v64v64v64v64v64v64v64h64v64h64h64h64h64h64h64h64h64h64h64v-64h64v-64v-64v-64v-64v-64h-64v-64h-64h-64v-64h64v-64h64v-64h64v-64v-64h-64zM576 448h64v64v64v64
h-64h-64h-64h-64h-64h-64h-64h-64v-64v-64v-64h64h64h64h64h64h64h64z" />
    <glyph glyph-name="S" unicode="S" 
d="M640 0h-64h-64h-64h-64h-64h-64h-64h-64h-64v64h-64v64v64v64h64h64v-64v-64h64h64h64h64h64h64h64h64v64v64v64h-64h-64h-64h-64h-64h-64h-64h-64h-64v64h-64v64v64v64v64v64h64v64h64h64h64h64h64h64h64h64h64h64v-64h64v-64v-64v-64h-64h-64v64v64h-64h-64h-64h-64
h-64h-64h-64h-64v-64v-64v-64h64h64h64h64h64h64h64h64h64v-64h64v-64v-64v-64v-64v-64h-64v-64h-64z" />
    <glyph glyph-name="T" unicode="T" 
d="M384 0h-64v64v64v64v64v64v64v64v64v64v64h-64h-64h-64h-64h-64v64v64h64h64h64h64h64h64h64h64h64h64h64h64v-64v-64h-64h-64h-64h-64h-64v-64v-64v-64v-64v-64v-64v-64v-64v-64v-64h-64z" />
    <glyph glyph-name="U" unicode="U" 
d="M640 0h-64h-64h-64h-64h-64h-64h-64h-64h-64v64h-64v64v64v64v64v64v64v64v64v64v64v64h64h64v-64v-64v-64v-64v-64v-64v-64v-64v-64v-64h64h64h64h64h64h64h64h64v64v64v64v64v64v64v64v64v64v64h64h64v-64v-64v-64v-64v-64v-64v-64v-64v-64v-64v-64h-64v-64h-64z" />
    <glyph glyph-name="V" unicode="V" 
d="M512 0h-64h-64h-64h-64h-64v64h-64v64h-64v64h-64v64v64v64v64v64v64v64v64v64h64h64v-64v-64v-64v-64v-64v-64v-64v-64h64v-64h64v-64h64h64h64h64v64h64v64h64v64v64v64v64v64v64v64v64h64h64v-64v-64v-64v-64v-64v-64v-64v-64v-64h-64v-64h-64v-64h-64v-64h-64z" />
    <glyph glyph-name="W" unicode="W" 
d="M704 0h-64h-64v64h-64v64h-64v64h-64h-64v-64h-64v-64h-64v-64h-64h-64h-64v64v64v64v64v64v64v64v64v64v64v64v64h64h64v-64v-64v-64v-64v-64v-64v-64v-64v-64h64v64h64v64h64v64h64h64v-64h64v-64h64v-64h64v64v64v64v64v64v64v64v64v64h64h64v-64v-64v-64v-64v-64v-64
v-64v-64v-64v-64v-64v-64h-64z" />
    <glyph glyph-name="X" unicode="X" 
d="M704 0h-64v64h-64v64h-64v64h-64v64h-64h-64v-64h-64v-64h-64v-64h-64v-64h-64h-64v64v64h64v64h64v64h64v64h64v64v64h-64v64h-64v64h-64v64h-64v64v64h64h64v-64h64v-64h64v-64h64v-64h64h64v64h64v64h64v64h64v64h64h64v-64v-64h-64v-64h-64v-64h-64v-64h-64v-64v-64
h64v-64h64v-64h64v-64h64v-64v-64h-64z" />
    <glyph glyph-name="Y" unicode="Y" 
d="M384 0h-64v64v64v64v64v64v64h-64v64h-64v64h-64v64h-64v64h-64v64v64h64h64v-64h64v-64h64v-64h64v-64h64h64v64h64v64h64v64h64v64h64h64v-64v-64h-64v-64h-64v-64h-64v-64h-64v-64h-64v-64v-64v-64v-64v-64v-64h-64z" />
    <glyph glyph-name="Z" unicode="Z" 
d="M704 0h-64h-64h-64h-64h-64h-64h-64h-64h-64h-64h-64v64v64h64v64h64v64h64v64h64v64h64v64h64v64h64v64h64v64h-64h-64h-64h-64h-64h-64h-64h-64v64v64h64h64h64h64h64h64h64h64h64h64h64h64v-64v-64h-64v-64h-64v-64h-64v-64h-64v-64h-64v-64h-64v-64h-64v-64h-64v-64
h64h64h64h64h64h64h64h64v-64v-64h-64z" />
    <glyph glyph-name="bracketleft" unicode="[" horiz-adv-x="384" 
d="M256 0h-64h-64h-64h-64v64v64v64v64v64v64v64v64v64v64v64v64h64h64h64h64h64v-64v-64h-64h-64h-64v-64v-64v-64v-64v-64v-64v-64v-64h64h64h64v-64v-64h-64z" />
    <glyph glyph-name="backslash" unicode="\" 
d="M704 0h-64v64h-64v64h-64v64h-64v64h-64v64h-64v64h-64v64h-64v64h-64v64h-64v64h-64v64v64h64h64v-64h64v-64h64v-64h64v-64h64v-64h64v-64h64v-64h64v-64h64v-64h64v-64h64v-64v-64h-64z" />
    <glyph glyph-name="bracketright" unicode="]" horiz-adv-x="384" 
d="M256 0h-64h-64h-64h-64v64v64h64h64h64v64v64v64v64v64v64v64v64h-64h-64h-64v64v64h64h64h64h64h64v-64v-64v-64v-64v-64v-64v-64v-64v-64v-64v-64v-64h-64z" />
    <glyph glyph-name="asciicircum" unicode="^" horiz-adv-x="576" 
d="M448 512h-64v64h-64v64h-64h-64v-64h-64v-64h-64h-64v64v64h64v64h64v64h64h64h64h64v-64h64v-64h64v-64v-64h-64z" />
    <glyph glyph-name="underscore" unicode="_" 
d="M704 -128h-64h-64h-64h-64h-64h-64h-64h-64h-64h-64h-64v64v64h64h64h64h64h64h64h64h64h64h64h64h64v-64v-64h-64z" />
    <glyph glyph-name="grave" unicode="`" horiz-adv-x="320" 
d="M192 512h-64v64h-64v64h-64v64v64h64h64v-64h64v-64h64v-64v-64h-64z" />
    <glyph glyph-name="a" unicode="a" 
d="M640 0h-64h-64h-64h-64h-64h-64h-64h-64h-64v64h-64v64v64v64h64v64h64h64h64h64h64h64h64h64h64v64v64h-64h-64h-64h-64h-64h-64h-64h-64v-64h-64h-64v64v64h64v64h64h64h64h64h64h64h64h64h64h64v-64h64v-64v-64v-64v-64v-64v-64v-64h-64v-64h-64zM576 128h64v64h-64
h-64h-64h-64h-64h-64h-64h-64v-64h64h64h64h64h64h64h64z" />
    <glyph glyph-name="b" unicode="b" 
d="M640 0h-64h-64h-64h-64h-64h-64h-64h-64h-64v64h-64v64v64v64v64v64v64v64v64v64v64v64h64h64v-64v-64v-64h64h64h64h64h64h64h64h64h64v-64h64v-64v-64v-64v-64v-64v-64v-64h-64v-64h-64zM576 128h64v64v64v64v64v64h-64h-64h-64h-64h-64h-64h-64h-64v-64v-64v-64v-64
v-64h64h64h64h64h64h64h64z" />
    <glyph glyph-name="c" unicode="c" 
d="M640 0h-64h-64h-64h-64h-64h-64h-64h-64h-64v64h-64v64v64v64v64v64v64v64h64v64h64h64h64h64h64h64h64h64h64h64v-64h64v-64v-64h-64h-64v64h-64h-64h-64h-64h-64h-64h-64h-64v-64v-64v-64v-64v-64h64h64h64h64h64h64h64h64v64h64h64v-64v-64h-64v-64h-64z" />
    <glyph glyph-name="d" unicode="d" 
d="M640 0h-64h-64h-64h-64h-64h-64h-64h-64h-64v64h-64v64v64v64v64v64v64v64h64v64h64h64h64h64h64h64h64h64h64v64v64v64h64h64v-64v-64v-64v-64v-64v-64v-64v-64v-64v-64v-64h-64v-64h-64zM576 128h64v64v64v64v64v64h-64h-64h-64h-64h-64h-64h-64h-64v-64v-64v-64v-64
v-64h64h64h64h64h64h64h64z" />
    <glyph glyph-name="e" unicode="e" 
d="M640 0h-64h-64h-64h-64h-64h-64h-64h-64h-64v64h-64v64v64v64v64v64v64v64h64v64h64h64h64h64h64h64h64h64h64h64v-64h64v-64v-64v-64h-64v-64h-64h-64h-64h-64h-64h-64h-64h-64h-64v-64v-64h64h64h64h64h64h64h64h64v64h64h64v-64v-64h-64v-64h-64zM576 384h64v64h-64
h-64h-64h-64h-64h-64h-64h-64v-64h64h64h64h64h64h64h64z" />
    <glyph glyph-name="f" unicode="f" 
d="M192 0h-64v64v64v64v64v64v64v64h-64h-64v64v64h64h64v64v64h64v64h64h64h64h64h64h64h64h64v-64h64v-64v-64h-64h-64v64h-64h-64h-64h-64h-64h-64v-64h64h64h64h64h64v-64v-64h-64h-64h-64h-64h-64v-64v-64v-64v-64v-64v-64v-64h-64z" />
    <glyph glyph-name="g" unicode="g" 
d="M640 -256h-64h-64h-64h-64h-64h-64h-64v64h-64v64v64h64h64v-64h64h64h64h64h64h64v64v64h-64h-64h-64h-64h-64h-64h-64h-64h-64v64h-64v64v64v64v64v64v64v64h64v64h64h64h64h64h64h64h64h64h64h64v-64h64v-64v-64v-64v-64v-64v-64v-64v-64v-64v-64v-64h-64v-64h-64z
M576 128h64v64v64v64v64v64h-64h-64h-64h-64h-64h-64h-64h-64v-64v-64v-64v-64v-64h64h64h64h64h64h64h64z" />
    <glyph glyph-name="h" unicode="h" 
d="M704 0h-64v64v64v64v64v64v64v64h-64h-64h-64h-64h-64h-64h-64h-64v-64v-64v-64v-64v-64v-64v-64h-64h-64v64v64v64v64v64v64v64v64v64v64v64v64h64h64v-64v-64v-64h64h64h64h64h64h64h64h64h64v-64h64v-64v-64v-64v-64v-64v-64v-64v-64h-64z" />
    <glyph glyph-name="i" unicode="i" 
d="M704 0h-64h-64h-64h-64h-64h-64h-64h-64h-64h-64h-64v64v64h64h64h64h64h64v64v64v64v64v64h-64h-64h-64h-64v64v64h64h64h64h64h64h64v-64v-64v-64v-64v-64v-64v-64h64h64h64h64h64v-64v-64h-64zM384 640h-64v64v64h64h64v-64v-64h-64z" />
    <glyph glyph-name="j" unicode="j" 
d="M640 -256h-64h-64h-64h-64h-64h-64h-64h-64h-64v64h-64v64v64v64v64v64h64h64v-64v-64v-64v-64h64h64h64h64h64h64h64h64v64v64v64v64v64v64v64v64v64v64v64h64h64v-64v-64v-64v-64v-64v-64v-64v-64v-64v-64v-64v-64h-64v-64h-64zM704 640h-64v64v64h64h64v-64v-64h-64z
" />
    <glyph glyph-name="k" unicode="k" 
d="M704 0h-64v64h-64v64h-64v64h-64h-64h-64h-64h-64h-64v-64v-64v-64h-64h-64v64v64v64v64v64v64v64v64v64v64v64v64h64h64v-64v-64v-64v-64v-64v-64v-64h64h64h64h64h64v64h64v64h64v64h64v64h64h64v-64v-64h-64v-64h-64v-64h-64v-64h64v-64h64v-64h64v-64v-64h-64z" />
    <glyph glyph-name="l" unicode="l" 
d="M704 0h-64h-64h-64h-64h-64h-64h-64h-64h-64h-64h-64v64v64h64h64h64h64h64v64v64v64v64v64v64v64v64h-64h-64h-64h-64v64v64h64h64h64h64h64h64v-64v-64v-64v-64v-64v-64v-64v-64v-64v-64h64h64h64h64h64v-64v-64h-64z" />
    <glyph glyph-name="m" unicode="m" 
d="M704 0h-64v64v64v64v64v64v64v64h-64h-64h-64v-64v-64v-64v-64v-64v-64v-64h-64h-64v64v64v64v64v64v64v64h-64h-64h-64v-64v-64v-64v-64v-64v-64v-64h-64h-64v64v64v64v64v64v64v64v64h64v64h64h64h64h64h64h64h64h64h64h64v-64h64v-64v-64v-64v-64v-64v-64v-64v-64h-64
z" />
    <glyph glyph-name="n" unicode="n" 
d="M704 0h-64v64v64v64v64v64v64v64h-64h-64h-64h-64h-64h-64h-64h-64v-64v-64v-64v-64v-64v-64v-64h-64h-64v64v64v64v64v64v64v64v64h64v64h64h64h64h64h64h64h64h64h64h64v-64h64v-64v-64v-64v-64v-64v-64v-64v-64h-64z" />
    <glyph glyph-name="o" unicode="o" 
d="M640 0h-64h-64h-64h-64h-64h-64h-64h-64h-64v64h-64v64v64v64v64v64v64v64h64v64h64h64h64h64h64h64h64h64h64h64v-64h64v-64v-64v-64v-64v-64v-64v-64h-64v-64h-64zM576 128h64v64v64v64v64v64h-64h-64h-64h-64h-64h-64h-64h-64v-64v-64v-64v-64v-64h64h64h64h64h64h64
h64z" />
    <glyph glyph-name="p" unicode="p" 
d="M64 -256h-64v64v64v64v64v64v64v64v64v64v64v64v64h64v64h64h64h64h64h64h64h64h64h64h64v-64h64v-64v-64v-64v-64v-64v-64v-64h-64v-64h-64h-64h-64h-64h-64h-64h-64h-64h-64v-64v-64v-64v-64h-64zM576 128h64v64v64v64v64v64h-64h-64h-64h-64h-64h-64h-64h-64v-64v-64
v-64v-64v-64h64h64h64h64h64h64h64z" />
    <glyph glyph-name="q" unicode="q" 
d="M704 -256h-64v64v64v64v64h-64h-64h-64h-64h-64h-64h-64h-64h-64v64h-64v64v64v64v64v64v64v64h64v64h64h64h64h64h64h64h64h64h64h64v-64h64v-64v-64v-64v-64v-64v-64v-64v-64v-64v-64v-64v-64h-64zM576 128h64v64v64v64v64v64h-64h-64h-64h-64h-64h-64h-64h-64v-64v-64
v-64v-64v-64h64h64h64h64h64h64h64z" />
    <glyph glyph-name="r" unicode="r" 
d="M704 0h-64h-64h-64h-64h-64h-64h-64h-64h-64h-64h-64v64v64h64h64h64h64h64v64v64v64v64v64v64v64h64h64h64h64h64h64h64v-64v-64v-64v-64h-64h-64v64v64h-64h-64h-64v-64v-64v-64v-64v-64h64h64h64h64h64v-64v-64h-64z" />
    <glyph glyph-name="s" unicode="s" 
d="M640 0h-64h-64h-64h-64h-64h-64h-64h-64h-64h-64v64v64h64h64h64h64h64h64h64h64h64h64v64h-64h-64h-64h-64h-64h-64h-64h-64h-64v64h-64v64v64v64v64h64v64h64h64h64h64h64h64h64h64h64h64v-64h64v-64v-64h-64h-64v64h-64h-64h-64h-64h-64h-64h-64h-64v-64v-64h64h64h64
h64h64h64h64h64h64v-64h64v-64v-64v-64h-64v-64h-64z" />
    <glyph glyph-name="t" unicode="t" 
d="M640 0h-64h-64h-64h-64h-64h-64h-64v64h-64v64v64v64v64v64v64h-64h-64v64v64h64h64v64v64v64h64h64v-64v-64v-64h64h64h64h64h64v-64v-64h-64h-64h-64h-64h-64v-64v-64v-64v-64v-64h64h64h64h64h64h64v64v64h64h64v-64v-64v-64h-64v-64h-64z" />
    <glyph glyph-name="u" unicode="u" 
d="M640 0h-64h-64h-64h-64h-64h-64h-64h-64h-64v64h-64v64v64v64v64v64v64v64v64h64h64v-64v-64v-64v-64v-64v-64v-64h64h64h64h64h64h64h64h64v64v64v64v64v64v64v64h64h64v-64v-64v-64v-64v-64v-64v-64v-64h-64v-64h-64z" />
    <glyph glyph-name="v" unicode="v" 
d="M512 0h-64h-64h-64h-64h-64v64h-64v64h-64v64h-64v64v64v64v64v64v64h64h64v-64v-64v-64v-64v-64h64v-64h64v-64h64h64h64h64v64h64v64h64v64v64v64v64v64h64h64v-64v-64v-64v-64v-64v-64h-64v-64h-64v-64h-64v-64h-64z" />
    <glyph glyph-name="w" unicode="w" 
d="M704 0h-64h-64v64h-64v64h-64v64h-64h-64v-64h-64v-64h-64v-64h-64h-64h-64v64v64v64v64v64v64v64v64v64h64h64v-64v-64v-64v-64v-64v-64h64v64h64v64h64v64h64h64v-64h64v-64h64v-64h64v64v64v64v64v64v64h64h64v-64v-64v-64v-64v-64v-64v-64v-64v-64h-64z" />
    <glyph glyph-name="x" unicode="x" 
d="M704 0h-64v64h-64v64h-64v64h-64v64h-64h-64v-64h-64v-64h-64v-64h-64v-64h-64h-64v64v64h64v64h64v64h64v64h-64v64h-64v64h-64v64v64h64h64v-64h64v-64h64v-64h64h64h64h64v64h64v64h64v64h64h64v-64v-64h-64v-64h-64v-64h-64v-64h64v-64h64v-64h64v-64v-64h-64z" />
    <glyph glyph-name="y" unicode="y" 
d="M256 -256h-64v64v64h64v64h64v64h-64h-64v64h-64v64h-64v64h-64v64v64v64v64v64v64h64h64v-64v-64v-64v-64v-64h64v-64h64v-64h64h64h64h64v64h64v64h64v64v64v64v64v64h64h64v-64v-64v-64v-64v-64v-64h-64v-64h-64v-64h-64v-64h-64v-64h-64v-64h-64v-64h-64v-64h-64z
" />
    <glyph glyph-name="z" unicode="z" 
d="M640 0h-64h-64h-64h-64h-64h-64h-64h-64h-64h-64v64v64h64v64h64v64h64v64h64v64h64v64h-64h-64h-64h-64h-64v64v64h64h64h64h64h64h64h64h64h64v-64v-64h-64v-64h-64v-64h-64v-64h-64v-64h-64v-64h64h64h64h64h64h64v64v64h64h64v-64v-64v-64h-64v-64h-64z" />
    <glyph glyph-name="braceleft" unicode="{" horiz-adv-x="384" 
d="M256 0h-64h-64h-64v64h-64v64v64h64v64h64v64h-64v64v64h64v64h-64v64h-64v64v64h64v64h64h64h64h64v-64v-64h-64h-64v-64h64v-64v-64v-64v-64v-64v-64h-64v-64h64h64v-64v-64h-64z" />
    <glyph glyph-name="bar" unicode="|" horiz-adv-x="192" 
d="M64 0h-64v64v64v64v64v64v64v64v64v64v64v64v64h64h64v-64v-64v-64v-64v-64v-64v-64v-64v-64v-64v-64v-64h-64z" />
    <glyph glyph-name="braceright" unicode="}" horiz-adv-x="384" 
d="M192 0h-64h-64h-64v64v64h64h64v64h-64v64v64v64v64v64v64h64v64h-64h-64v64v64h64h64h64h64v-64h64v-64v-64h-64v-64h-64v-64h64v-64v-64h-64v-64h64v-64h64v-64v-64h-64v-64h-64z" />
    <glyph glyph-name="asciitilde" unicode="~" 
d="M640 128h-64h-64h-64h-64v64h-64v64h-64h-64h-64v-64h-64h-64v64v64h64v64h64h64h64h64h64h64v-64h64v-64h64h64v64h64h64v-64v-64h-64v-64h-64z" />
    <glyph glyph-name="uni00A0" unicode="&#xa0;" horiz-adv-x="320" 
 />
    <glyph glyph-name="paragraph" unicode="&#xb6;" 
d="M640 0h-64h-64h-64h-64h-64h-64h-64h-64h-64v64h-64v64v64h64h64v-64h64h64h64h64h64h64h64h64v64v64v64v64v64v64v64v64h-64h-64v-64v-64v-64v-64v-64h-64h-64h-64h-64h-64h-64h-64v64h-64v64v64v64v64v64h64v64h64h64h64h64h64h64h64h64h64h64v-64h64v-64v-64v-64v-64
v-64v-64v-64v-64v-64v-64h-64v-64h-64z" />
  </font>
</defs>
</svg>
